:FULLY-SPECIFIED
:FORCE-ALL-JOINTS-BE-3DOF
:DEGREES
68
root 6.36817 16.8036 -27.6784 8.6548 3.60474 -2.27744
lfemur -24.5135 2.28324 -17.3726
ltibia 37.8269 0 0
lfoot -28.2383 -2.73979 0
ltoes 30.6135 0 0
rfemur -22.7159 -1.29855 15.3153
rtibia 45.2396 0 0
rfoot -12.7981 -5.02318 0
rtoes 1.28925 0 0
lowerback -3.59156 1.89246 0.8441
upperback -1.50278 2.50855 0.124966
thorax 0.494676 1.2565 -0.251706
lowerneck -9.9295 -2.70574 2.68174
upperneck -2.89698 -3.86992 1.60292
head 0.726132 -1.9269 -0.0965313
lclavicle -1.23461e-014 -1.22155e-014 0
lhumerus -43.0432 -12.3942 94.8876
lradius 44.2777 0 0
lwrist 10.1764 0 0
lhand -5.25469 4.92071 0
lfingers 7.12502 0 0
lthumb 20.5261 33.607 0
rclavicle -1.23461e-014 -1.22155e-014 0
rhumerus -40.9501 -2.24435 -85.2916
rradius 43.4733 0 0
rwrist 5.65549 0 0
rhand -23.5919 -18.8435 0
rfingers 7.12502 0 0
rthumb 2.87106 -48.7789 0
69
root 6.39906 16.8002 -27.6504 8.51398 3.81054 -2.31766
lfemur -24.5739 2.09827 -17.1944
ltibia 37.8588 0 0
lfoot -27.9594 -2.77878 0
ltoes 30.2576 0 0
rfemur -23.0349 -1.5057 15.0635
rtibia 46.1549 0 0
rfoot -11.8585 -4.26983 0
rtoes 1.25793 0 0
lowerback -3.45815 1.89486 0.836858
upperback -1.49385 2.51354 0.175546
thorax 0.426607 1.25911 -0.200553
lowerneck -9.94465 -2.76912 2.67272
upperneck -2.83464 -3.95457 1.58341
head 0.747822 -1.96838 -0.105351
lclavicle -1.13597e-014 -1.2656e-014 0
lhumerus -43.1588 -12.2806 94.85
lradius 44.4066 0 0
lwrist 10.345 0 0
lhand -4.88631 5.03743 0
lfingers 7.12502 0 0
lthumb 20.8792 33.6762 0
rclavicle -1.13597e-014 -1.2656e-014 0
rhumerus -41.0045 -2.17171 -84.9003
rradius 43.68 0 0
rwrist 5.44549 0 0
rhand -23.4496 -18.6921 0
rfingers 7.12502 0 0
rthumb 3.00851 -48.6247 0
70
root 6.42996 16.7968 -27.6224 8.37317 4.01634 -2.35788
lfemur -24.6343 1.9133 -17.0161
ltibia 37.8906 0 0
lfoot -27.6805 -2.81777 0
ltoes 29.9017 0 0
rfemur -23.3539 -1.71285 14.8117
rtibia 47.0702 0 0
rfoot -10.9189 -3.51649 0
rtoes 1.22661 0 0
lowerback -3.32474 1.89725 0.829616
upperback -1.48492 2.51853 0.226126
thorax 0.358537 1.26173 -0.149401
lowerneck -9.9598 -2.83251 2.6637
upperneck -2.77229 -4.03923 1.5639
head 0.769512 -2.00987 -0.11417
lclavicle -1.03733e-014 -1.30964e-014 0
lhumerus -43.2744 -12.1671 94.8124
lradius 44.5355 0 0
lwrist 10.5135 0 0
lhand -4.51794 5.15416 0
lfingers 7.12502 0 0
lthumb 21.2323 33.7455 0
rclavicle -1.03733e-014 -1.30964e-014 0
rhumerus -41.0589 -2.09907 -84.509
rradius 43.8868 0 0
rwrist 5.23549 0 0
rhand -23.3072 -18.5407 0
rfingers 7.12502 0 0
rthumb 3.14596 -48.4706 0
71
root 6.46085 16.7933 -27.5944 8.23236 4.22213 -2.39809
lfemur -24.6948 1.72832 -16.8379
ltibia 37.9225 0 0
lfoot -27.4016 -2.85675 0
ltoes 29.5457 0 0
rfemur -23.6729 -1.92 14.5599
rtibia 47.9855 0 0
rfoot -9.97933 -2.76314 0
rtoes 1.19529 0 0
lowerback -3.19133 1.89965 0.822374
upperback -1.47599 2.52353 0.276706
thorax 0.290467 1.26434 -0.0982478
lowerneck -9.97496 -2.89589 2.65468
upperneck -2.70994 -4.12389 1.54439
head 0.791201 -2.05135 -0.122989
lclavicle -9.38696e-015 -1.35369e-014 0
lhumerus -43.39 -12.0535 94.7749
lradius 44.6643 0 0
lwrist 10.6821 0 0
lhand -4.14956 5.27089 0
lfingers 7.12502 0 0
lthumb 21.5853 33.8147 0
rclavicle -9.38696e-015 -1.35369e-014 0
rhumerus -41.1133 -2.02642 -84.1177
rradius 44.0935 0 0
rwrist 5.02549 0 0
rhand -23.1649 -18.3892 0
rfingers 7.12502 0 0
rthumb 3.28342 -48.3165 0
72
root 6.49174 16.7899 -27.5663 8.09155 4.42793 -2.43831
lfemur -24.7552 1.54335 -16.6596
ltibia 37.9543 0 0
lfoot -27.1228 -2.89574 0
ltoes 29.1898 0 0
rfemur -23.9919 -2.12715 14.3081
rtibia 48.9008 0 0
rfoot -9.03972 -2.0098 0
rtoes 1.16397 0 0
lowerback -3.05791 1.90204 0.815131
upperback -1.46706 2.52852 0.327285
thorax 0.222398 1.26696 -0.0470951
lowerneck -9.99011 -2.95928 2.64566
upperneck -2.6476 -4.20854 1.52488
head 0.812891 -2.09284 -0.131808
lclavicle -8.40059e-015 -1.39773e-014 0
lhumerus -43.5056 -11.9399 94.7373
lradius 44.7932 0 0
lwrist 10.8507 0 0
lhand -3.78119 5.38762 0
lfingers 7.12502 0 0
lthumb 21.9384 33.884 0
rclavicle -8.40059e-015 -1.39773e-014 0
rhumerus -41.1678 -1.95378 -83.7264
rradius 44.3003 0 0
rwrist 4.81549 0 0
rhand -23.0225 -18.2378 0
rfingers 7.12502 0 0
rthumb 3.42087 -48.1623 0
73
root 6.52264 16.7864 -27.5383 7.95073 4.63373 -2.47852
lfemur -24.8157 1.35838 -16.4814
ltibia 37.9862 0 0
lfoot -26.8439 -2.93472 0
ltoes 28.8338 0 0
rfemur -24.3109 -2.3343 14.0564
rtibia 49.8161 0 0
rfoot -8.10012 -1.25645 0
rtoes 1.13264 0 0
lowerback -2.9245 1.90444 0.807889
upperback -1.45813 2.53352 0.377865
thorax 0.154328 1.26957 0.00405765
lowerneck -10.0053 -3.02267 2.63664
upperneck -2.58525 -4.2932 1.50537
head 0.834581 -2.13432 -0.140628
lclavicle -7.41422e-015 -1.44177e-014 0
lhumerus -43.6212 -11.8264 94.6997
lradius 44.922 0 0
lwrist 11.0192 0 0
lhand -3.41281 5.50434 0
lfingers 7.12502 0 0
lthumb 22.2914 33.9533 0
rclavicle -7.41422e-015 -1.44177e-014 0
rhumerus -41.2222 -1.88114 -83.3351
rradius 44.507 0 0
rwrist 4.60549 0 0
rhand -22.8802 -18.0864 0
rfingers 7.12502 0 0
rthumb 3.55832 -48.0082 0
